Coordinates
version=1
nRows=20
nColumns=34
inDegrees=yes

Units are S.I. units (second, meters, Newtons, ...)
If the header above contains a line with 'inDegrees', this indicates whether rotational values are in degrees (yes) or radians (no).

endheader
time	pelvis_tilt	pelvis_list	pelvis_rotation	pelvis_tx	pelvis_ty	pelvis_tz	hip_flexion_r	hip_adduction_r	hip_rotation_r	knee_angle_r	ankle_angle_r	subtalar_angle_r	mtp_angle_r	hip_flexion_l	hip_adduction_l	hip_rotation_l	knee_angle_l	ankle_angle_l	subtalar_angle_l	mtp_angle_l	lumbar_extension	lumbar_bending	lumbar_rotation	arm_flex_r	arm_add_r	arm_rot_r	elbow_flex_r	pro_sup_r	arm_flex_l	arm_add_l	arm_rot_l	elbow_flex_l	pro_sup_l
      2.76666670	     -4.40216629	      0.51656742	     -5.46483360	      1.61687714	      0.87126029	     -0.01918924	      3.93544399	     -5.47532393	     -2.01165986	      1.50058809	      2.63656786	    -18.79124430	      0.00000000	      3.47708062	     -3.99076458	      5.50992311	      2.96036180	      4.11962205	     -9.91301494	      0.00000000	     -6.23961528	      0.28494739	      0.80599207	      3.50073647	     -7.93392682	     29.58649596	     88.29563448	     73.09788388	     10.79242167	     -7.16114227	     30.17314242	     62.40290777	     70.75857606
      2.78333330	     -4.86137289	      0.72001394	     -5.86800756	      1.61530141	      0.87129683	     -0.01987963	      5.01289651	     -5.73163792	     -1.92017757	      2.31112166	      2.86754823	    -18.86291600	      0.00000000	      4.12581168	     -3.75211167	      5.08509300	      3.26141586	      4.05167310	    -10.43826083	      0.00000000	     -6.12024190	      0.22832433	      1.31691979	      3.95974659	     -8.21714185	     30.11097847	     88.33512641	     73.12787502	     10.71022098	     -6.73353784	     29.49796344	     63.28930859	     70.76917377
      2.80000000	     -4.95659594	      0.77343426	     -5.95095013	      1.61383979	      0.87208920	     -0.02099708	      5.14842016	     -5.83792857	     -1.97039387	      2.26311986	      2.83217372	    -18.85335306	      0.00000000	      4.20102939	     -3.64632515	      5.05173833	      3.20721790	      4.04621441	    -10.45820606	      0.00000000	     -6.21378175	      0.35355914	      1.26267973	      4.11377210	     -8.22119861	     30.08626982	     88.32567621	     73.12625218	     10.82419480	     -6.59939415	     29.48911082	     63.35948380	     70.77348745
      2.81666670	     -5.10771976	      0.83980650	     -5.93329228	      1.61254317	      0.87245772	     -0.02163825	      5.40601107	     -5.94960793	     -1.96410602	      2.29401916	      2.75022530	    -18.77242886	      0.00000000	      4.40745640	     -3.54141461	      4.99089080	      3.12648941	      4.00408483	    -10.48763157	      0.00000000	     -6.37151173	      0.44132616	      1.27798110	      4.54154083	     -8.19821675	     30.02702077	     88.34268444	     73.12494569	     11.01435090	     -6.34218539	     29.48677353	     63.50414584	     70.78221399
      2.83333330	     -5.71576256	      0.96492155	     -6.20001517	      1.61162698	      0.87130155	     -0.02105155	      6.63974488	     -6.04767592	     -1.93698583	      3.02276752	      3.13714928	    -18.24793494	      0.00000000	      5.30595952	     -3.45883703	      4.88890953	      3.46448540	      3.70268026	    -10.91154203	      0.00000000	     -5.99032070	      0.41083048	      1.21359380	      5.23180147	     -8.34303958	     30.73632185	     88.27142570	     73.20759273	     10.74970194	     -6.33545796	     29.07238403	     64.47552054	     70.91905159
      2.85000000	     -5.83034203	      0.98850530	     -6.26236306	      1.61183220	      0.87082532	     -0.02047020	      6.79578493	     -6.07289112	     -1.94630471	      2.92950885	      3.11059083	    -18.20175134	      0.00000000	      5.41733209	     -3.43341149	      4.86839187	      3.36991772	      3.68803227	    -10.91579216	      0.00000000	     -6.11863001	      0.46945200	      1.14295003	      5.46470370	     -8.29736911	     30.69144880	     88.29386908	     73.20784222	     10.91269269	     -6.18304297	     29.06489637	     64.55086359	     70.92649773
      2.86666670	     -5.96787469	      0.99929441	     -6.22402577	      1.61179193	      0.87078050	     -0.02026228	      7.00533035	     -6.06861980	     -1.89454881	      2.95523510	      3.03023563	    -18.06718286	      0.00000000	      5.62004247	     -3.44343015	      4.82683229	      3.33165298	      3.60381922	    -10.90711946	      0.00000000	     -6.26041705	      0.50562043	      1.16152895	      5.88890949	     -8.17749313	     30.63047567	     88.37586298	     73.21141285	     11.09779383	     -6.00767014	     29.04686246	     64.67421930	     70.93785427
      2.88333330	     -6.43806003	      1.07536519	     -6.44564751	      1.61156112	      0.86969053	     -0.02054207	      7.93124473	     -6.11402498	     -2.07379244	      3.54657360	      3.47558340	    -17.39919389	      0.00000000	      6.34570460	     -3.42958700	      4.57734450	      3.70579913	      3.40821858	    -11.17941690	      0.00000000	     -6.08004793	      0.55628135	      1.03680470	      6.30788863	     -8.19166266	     30.99372357	     88.78802938	     73.33445736	     10.88087065	     -6.02422028	     28.61031347	     65.61465006	     71.08645129
      2.90000000	     -6.57604780	      1.09737005	     -6.48435612	      1.61148701	      0.86963078	     -0.02145398	      8.09095823	     -6.13610726	     -2.07125401	      3.51072563	      3.39293599	    -17.26866130	      0.00000000	      6.50995730	     -3.42593912	      4.58603564	      3.70188260	      3.33138145	    -11.14176386	      0.00000000	     -6.24889827	      0.58713572	      1.01087821	      6.56533858	     -8.09871099	     30.96570012	     88.84499787	     73.34432524	     10.96225661	     -5.89286385	     28.58002896	     65.68247316	     71.10235012
      2.91666670	     -6.72968980	      1.13827877	     -6.56620226	      1.61128442	      0.86929178	     -0.02235508	      8.32179474	     -6.19921032	     -2.11562478	      3.54149237	      3.32432194	    -17.12820244	      0.00000000	      6.72922981	     -3.39215432	      4.48380998	      3.77299254	      3.26039941	    -11.15178678	      0.00000000	     -6.39723762	      0.63591533	      0.97765125	      6.87387425	     -7.99060891	     30.93786358	     88.96645022	     73.35843140	     11.07708947	     -5.70677945	     28.53690919	     65.80205009	     71.12108584
      2.93333330	     -7.29896174	      1.24240707	     -6.71825414	      1.61095601	      0.86861558	     -0.02288308	      9.27845873	     -6.31136355	     -2.40951822	      4.04814074	      3.80023787	    -16.39569035	      0.00000000	      7.58155820	     -3.32939818	      4.21313844	      4.19190629	      3.30844958	    -11.25666170	      0.00000000	     -6.10759642	      0.66979394	      0.89527903	      7.03382494	     -8.07505156	     31.22184023	     89.52199093	     73.51599413	     10.75943364	     -5.56779291	     27.90681645	     66.52131973	     71.28890181
      2.95000000	     -7.42322405	      1.27939664	     -6.80181389	      1.61093745	      0.86820614	     -0.02283486	      9.39251501	     -6.36494511	     -2.42908011	      3.93508238	      3.79772354	    -16.36269623	      0.00000000	      7.70230359	     -3.28937624	      4.20533536	      4.17169309	      3.28575916	    -11.24379889	      0.00000000	     -6.29880519	      0.70835399	      0.88214160	      7.14642428	     -8.03293193	     31.20390035	     89.51068231	     73.51934060	     10.77826579	     -5.45430564	     27.92045506	     66.54348921	     71.29823934
      2.96666670	     -7.86243024	      1.37387705	     -6.86848562	      1.61016867	      0.86804982	     -0.02271251	     10.09935654	     -6.46584903	     -2.64424114	      4.23187875	      4.03419020	    -15.71348116	      0.00000000	      8.46250958	     -3.22104021	      3.85887459	      4.59280770	      3.33080201	    -11.29271922	      0.00000000	     -6.24481438	      0.76033187	      0.88684264	      7.59141713	     -7.90719761	     31.26687930	     89.39168541	     73.64128856	     10.71316613	     -5.19244109	     27.55482295	     67.07896436	     71.51423117
      2.98333330	     -8.02837795	      1.42951387	     -6.92662905	      1.61009079	      0.86917409	     -0.02245236	     10.23223763	     -6.50869327	     -2.64097036	      4.07120385	      4.04875112	    -15.67814577	      0.00000000	      8.62728829	     -3.17625756	      3.86340300	      4.55307981	      3.28831396	    -11.25935524	      0.00000000	     -6.49754220	      0.80550064	      0.88615458	      7.72179379	     -7.90239943	     31.23287645	     89.36439419	     73.64337226	     10.72842880	     -5.10127828	     27.56789968	     67.08922459	     71.52516283
      3.00000000	     -8.24819406	      1.48648252	     -6.93727963	      1.60967335	      0.87060481	     -0.02260570	     10.48066579	     -6.54942643	     -2.57458370	      3.98082046	      3.95066669	    -15.40287719	      0.00000000	      9.03743288	     -3.13635582	      3.71349394	      4.77095323	      3.06478103	    -11.16628293	      0.00000000	     -6.73698230	      0.86423725	      0.92773704	      8.21270875	     -7.81299734	     31.12163027	     89.35532211	     73.65738960	     10.96649445	     -4.82228669	     27.53154484	     67.26683053	     71.57081908
      3.01666670	     -8.49581801	      1.52847483	     -6.98924153	      1.60943260	      0.87110801	     -0.02276609	     10.80256007	     -6.56382502	     -2.60318072	      3.95823024	      3.90885739	    -15.08371335	      0.00000000	      9.44888549	     -3.12407817	      3.46706857	      4.95173193	      2.93337893	    -11.10718824	      0.00000000	     -6.99854599	      0.93056961	      0.95417687	      8.43891360	     -7.71506680	     31.07796295	     89.34032596	     73.68319680	     11.11089222	     -4.72119788	     27.43818775	     67.44380603	     71.63249899
      3.03333330	     -9.09939790	      1.62746560	     -7.07513071	      1.60918305	      0.87041618	     -0.02283279	     11.67700089	     -6.61485511	     -3.07730660	      4.25895010	      4.62021274	    -13.81816836	      0.00000000	     10.29092248	     -3.11672873	      3.05171097	      5.22705585	      3.16347856	    -10.61461422	      0.00000000	     -6.79303659	      0.93586602	      0.85031995	      8.39873690	     -7.57969717	     31.06946351	     89.55548389	     73.90042988	     10.71649154	     -4.73948256	     26.92086938	     68.26745915	     72.05886169
      3.05000000	     -9.23131860	      1.66255610	     -7.11163093	      1.60886831	      0.87050127	     -0.02286213	     11.79872965	     -6.63191375	     -3.08360546	      4.14488621	      4.61057468	    -13.77194228	      0.00000000	     10.45050566	     -3.09012916	      2.99343001	      5.19747834	      3.12379266	    -10.60047918	      0.00000000	     -7.07636504	      0.98613900	      0.81171603	      8.42206874	     -7.51068318	     31.08257435	     89.54196369	     73.90704776	     10.80617772	     -4.69311864	     26.90502874	     68.27387875	     72.07237452
      3.06666670	     -9.36169219	      1.67732906	     -7.12725012	      1.60746352	      0.87112503	     -0.02271199	     12.06036378	     -6.63130690	     -3.14425663	      4.23912057	      4.46791331	    -13.49524387	      0.00000000	     10.87868723	     -3.11007932	      2.66360683	      5.57645035	      2.85394803	    -10.49185679	      0.00000000	     -7.50769081	      1.01452373	      0.78903346	      8.69968609	     -7.12083636	     31.10374737	     89.68654726	     73.94007367	     11.22027696	     -4.55791605	     26.78581086	     68.43980195	     72.12949945
      3.08333330	     -9.73269864	      1.75339106	     -7.22382584	      1.60596272	      0.87135515	     -0.02198531	     12.84543257	     -6.69313906	     -3.70135629	      4.80003968	      5.12481708	    -12.41519926	      0.00000000	     11.63225994	     -3.13652972	      1.98725745	      6.12156456	      3.23821817	     -9.86759238	      0.00000000	     -7.81397681	      1.01911874	      0.69487737	      8.84896036	     -7.03196992	     31.00257687	     90.16030767	     74.17154232	     11.17378993	     -4.59907134	     26.31836774	     69.27728927	     72.56143973
